<svg xmlns="http://www.w3.org/2000/svg" xmlns:xlink="http://www.w3.org/1999/xlink" version="1.0" x="0px" y="0px" viewBox="0 0 18 36" enable-background="new 0 0 18 36" width="18px" height="36px" xml:space="preserve">
<style type="text/css">
	.st0{fill:#949494;}
	.st1{fill:black;}
</style>
<path class="st0" d="M17.7,16.6l-3.5-3.5c1.1-1.4,1.8-3.2,1.8-5.1c0-4.4-3.5-8.1-8-8.1c0,0,0,0-0.1,0C3.6,0,0,3.7,0,8.2c0,0,0,0,0,0  c0,4.4,3.5,8.1,8,8.1c0,0,0,0,0.1,0c1.8,0,3.5-0.6,4.9-1.7l3.2,3c0.4,0.3,1.3,0.7,1.7,0.3S18.1,17,17.7,16.6z M8,14.2  c-3.3,0-6-2.7-6-6.1c0-3.4,2.7-6.1,6-6.1c0,0,0,0,0,0c3.3,0,6,2.7,6,6.1C14.1,11.5,11.4,14.2,8,14.2C8.1,14.2,8,14.2,8,14.2z"/>
<path class="st1" d="M17.7,34.6l-3.5-3.5c1.1-1.4,1.8-3.2,1.8-5.1c0-4.4-3.5-8.1-8-8.1c0,0,0,0-0.1,0c-4.5,0-8,3.7-8,8.2  c0,0,0,0,0,0c0,4.4,3.5,8.1,8,8.1c0,0,0,0,0.1,0c1.8,0,3.5-0.6,4.9-1.7l3.2,3c0.4,0.3,1.3,0.7,1.7,0.3S18.1,35,17.7,34.6z M8,32.2  c-3.3,0-6-2.7-6-6.1c0-3.4,2.7-6.1,6-6.1c0,0,0,0,0,0c3.3,0,6,2.7,6,6.1C14.1,29.5,11.4,32.2,8,32.2C8.1,32.2,8,32.2,8,32.2z"/>
</svg>