<svg xmlns="http://www.w3.org/2000/svg" xmlns:xlink="http://www.w3.org/1999/xlink" version="1.0" x="0px" y="0px" viewBox="0 0 15 30" enable-background="new 0 0 15 30" width="15px" height="30px" xml:space="preserve">
<defs><style>.cls-1{fill:#949494;}.cls-2{fill:#000000;}</style></defs>
<title>insta</title><path class="cls-1" d="M22.06,1.4H33.19a1.9,1.9,0,0,1,1.94,1.87s0,0,0,.07V14.46a1.9,1.9,0,0,1-1.87,1.94H22.06a1.9,1.9,0,0,1-1.94-1.87s0,0,0-.07V3.34A1.9,1.9,0,0,1,22,1.4h0.07ZM31,3.09a0.72,0.72,0,0,0-.67.67v1.6A0.72,0.72,0,0,0,31,6h1.69a0.72,0.72,0,0,0,.67-0.67V3.76a0.72,0.72,0,0,0-.67-0.67H31Zm2.36,4.63H32A6.51,6.51,0,0,1,32.18,9a4.58,4.58,0,0,1-4.63,4.47A4.46,4.46,0,0,1,23,9.09S23,9,23,9a6.51,6.51,0,0,1,.17-1.26H21.81V14a0.57,0.57,0,0,0,.56.59h10.4a0.57,0.57,0,0,0,.59-0.56s0,0,0,0V7.72h0ZM27.62,6a2.93,2.93,0,0,0-3,2.83v0a2.93,2.93,0,0,0,3,2.87h0a2.93,2.93,0,0,0,3-2.83v0A3,3,0,0,0,27.62,6Z" transform="translate(-20.12 -1.4)"/><path class="cls-2" d="M22.06,16.4H33.19a1.9,1.9,0,0,1,1.94,1.87s0,0,0,.07V29.46a1.9,1.9,0,0,1-1.87,1.94H22.06a1.9,1.9,0,0,1-1.94-1.87s0,0,0-.07V18.34A1.9,1.9,0,0,1,22,16.4h0.07ZM31,18.09a0.72,0.72,0,0,0-.67.67v1.6A0.72,0.72,0,0,0,31,21h1.69a0.72,0.72,0,0,0,.67-0.67v-1.6a0.72,0.72,0,0,0-.67-0.67H31Zm2.36,4.63H32A6.51,6.51,0,0,1,32.18,24a4.58,4.58,0,0,1-4.63,4.47A4.46,4.46,0,0,1,23,24.09S23,24,23,24a6.51,6.51,0,0,1,.17-1.26H21.81V29a0.57,0.57,0,0,0,.56.59h10.4a0.57,0.57,0,0,0,.59-0.56s0,0,0,0V22.72h0ZM27.62,21a2.93,2.93,0,0,0-3,2.83v0a2.93,2.93,0,0,0,3,2.87h0a2.93,2.93,0,0,0,3-2.83v0A3,3,0,0,0,27.62,21Z" transform="translate(-20.12 -1.4)"/></svg>