<svg xmlns="http://www.w3.org/2000/svg" xmlns:xlink="http://www.w3.org/1999/xlink" version="1.0" x="0px" y="0px" viewBox="0 0 17.13 28" enable-background="new 0 0 17.13 28" width="20px" height="28px" xml:space="preserve">
<defs><style>.cls-1{fill:#949494;}.cls-2{fill:#000000;}</style></defs>
<title>twitter</title><path class="cls-1" d="M40.88,1.69a7,7,0,0,1-2,.56A3.53,3.53,0,0,0,40.43.3a7,7,0,0,1-2.23.85,3.52,3.52,0,0,0-6,3.21A10,10,0,0,1,24.95.68,3.52,3.52,0,0,0,26,5.38a3.51,3.51,0,0,1-1.59-.44V5a3.52,3.52,0,0,0,2.82,3.45,3.52,3.52,0,0,1-1.58.06A3.52,3.52,0,0,0,29,11a7.06,7.06,0,0,1-4.36,1.46,7.14,7.14,0,0,1-.84,0A10,10,0,0,0,39.14,4V3.5A7.14,7.14,0,0,0,40.88,1.69Z" transform="translate(-23.75 -0.06)"/><path class="cls-2" d="M40.88,15.69a7,7,0,0,1-2,.56,3.53,3.53,0,0,0,1.54-1.94,7,7,0,0,1-2.23.85,3.52,3.52,0,0,0-6,3.21,10,10,0,0,1-7.27-3.68A3.52,3.52,0,0,0,26,19.38a3.51,3.51,0,0,1-1.59-.44V19a3.52,3.52,0,0,0,2.82,3.45,3.52,3.52,0,0,1-1.58.06A3.52,3.52,0,0,0,29,25a7.06,7.06,0,0,1-4.36,1.46,7.14,7.14,0,0,1-.84,0A10,10,0,0,0,39.14,18V17.5A7.14,7.14,0,0,0,40.88,15.69Z" transform="translate(-23.75 -0.06)"/></svg>