<svg xmlns="http://www.w3.org/2000/svg" xmlns:xlink="http://www.w3.org/1999/xlink" version="1.0" x="0px" y="0px" viewBox="0 0 16 19" enable-background="new 0 0 16 19" width="16px" height="19px" xml:space="preserve">
<defs><style>.cls-1{fill:#949494;}.cls-1,.cls-2{fill-rule:evenodd;}.cls-2{fill:#000000;}</style></defs>
<title>vk</title><path class="cls-1" d="M54.54,38.2h1a0.8,0.8,0,0,0,.44-0.2,0.75,0.75,0,0,0,.13-0.44s0-1.35.58-1.54S58,37.31,58.8,37.88a1.42,1.42,0,0,0,1.07.32H62s1.12-.09.59-1A7.36,7.36,0,0,0,61,35.3c-1.35-1.29-1.17-1.08.46-3.32,1-1.36,1.38-2.19,1.26-2.55a2.13,2.13,0,0,0-.92-0.68H59.92a3.6,3.6,0,0,0-.95,0,1.51,1.51,0,0,0,0,.76,14.36,14.36,0,0,1-.89,2c-1.08,1.89-1.51,2-1.68,1.87-0.41-.27-0.31-1.1-0.31-1.68,0-1.83.27-2.59-.52-2.79a4,4,0,0,0-1.13-.12,5.07,5.07,0,0,0-2,.21c-0.28.14-.49,0.45-0.36,0.47a1.08,1.08,0,0,1,.71.37A2.48,2.48,0,0,1,53,30.93s0.14,2.15-.33,2.42-0.77-.19-1.73-1.9a15.67,15.67,0,0,1-.86-1.87,0.74,0.74,0,0,0-.2-0.28,2.09,2.09,0,0,1-.36-0.56H46.66a2.74,2.74,0,0,0,0,1,27.17,27.17,0,0,0,3.84,6.57A5.49,5.49,0,0,0,54.54,38.2Z" transform="translate(-46.62 -28.68)"/><path class="cls-2" d="M54.54,47.74h1a0.8,0.8,0,0,0,.44-0.2,0.75,0.75,0,0,0,.13-0.44s0-1.35.58-1.54S58,46.85,58.8,47.42a1.42,1.42,0,0,0,1.07.32H62s1.12-.09.59-1A7.36,7.36,0,0,0,61,44.83c-1.35-1.29-1.17-1.08.46-3.32,1-1.36,1.38-2.19,1.26-2.55a2.13,2.13,0,0,0-.92-0.68H59.92a3.6,3.6,0,0,0-.95,0,1.51,1.51,0,0,0,0,.76A14.36,14.36,0,0,1,58,41c-1.08,1.89-1.51,2-1.68,1.87-0.41-.27-0.31-1.1-0.31-1.68,0-1.83.27-2.59-.52-2.79a4,4,0,0,0-1.13-.12,5.07,5.07,0,0,0-2,.21c-0.28.14-.49,0.45-0.36,0.47a1.08,1.08,0,0,1,.71.37A2.48,2.48,0,0,1,53,40.47s0.14,2.15-.33,2.42-0.77-.19-1.73-1.9a15.67,15.67,0,0,1-.86-1.87,0.74,0.74,0,0,0-.2-0.28,2.09,2.09,0,0,1-.36-0.56H46.66a2.74,2.74,0,0,0,0,1,27.17,27.17,0,0,0,3.84,6.57A5.49,5.49,0,0,0,54.54,47.74Z" transform="translate(-46.62 -28.68)"/></svg>