<svg xmlns="http://www.w3.org/2000/svg" xmlns:xlink="http://www.w3.org/1999/xlink" version="1.0" x="0px" y="0px" viewBox="0 0 36 30" enable-background="new 0 0 36 30" width="36px" height="30px" xml:space="preserve">
<defs><style>.cls-1{fill:#919191;}.cls-2{fill:#ff1800;}</style></defs>
<title>youtube</title><path class="cls-1" d="M35.53,13.18a4.25,4.25,0,0,1-.84,2.09,3.46,3.46,0,0,1-2.09.92c-3,.25-7.46.25-7.46,0.25s-5.53-.08-7.21-0.25a3.66,3.66,0,0,1-2.35-.92,4.25,4.25,0,0,1-.84-2.09,26.34,26.34,0,0,1-.25-3.44V8.07a28.09,28.09,0,0,1,.25-3.44,4.25,4.25,0,0,1,.84-2.09,3.46,3.46,0,0,1,2.09-.92c2.93-.17,7.37-0.17,7.37-0.17h0s4.44,0,7.46.25a3.13,3.13,0,0,1,2.09.92,4.25,4.25,0,0,1,.84,2.09,26.34,26.34,0,0,1,.25,3.44V9.75A20.73,20.73,0,0,1,35.53,13.18ZM20.7,4H16.17V5.3h1.51v8.21h1.42V5.3H20.7V4Zm3.52,2.43H22.88v5.45a1.1,1.1,0,0,1-.75.67,0.23,0.23,0,0,1-.25-0.25V6.39H20.53V12a3.28,3.28,0,0,0,.17,1.09,0.91,0.91,0,0,0,.84.59A2,2,0,0,0,23,12.76v0.75H24.3V6.39H24.22Zm4.94,2.09A5,5,0,0,0,29,7.06a1.06,1.06,0,0,0-1-.84,1.63,1.63,0,0,0-1.34.84V4H25.39v9.55h1.26V12.76A2,2,0,0,0,28,13.6a1.06,1.06,0,0,0,1.09-.84,5.47,5.47,0,0,0,.17-1.42V8.49H29.16Zm4.78,0.25a2.88,2.88,0,0,0-.42-1.68,1.89,1.89,0,0,0-3,0,2.88,2.88,0,0,0-.42,1.68v2.51a3.08,3.08,0,0,0,.42,1.68,1.84,1.84,0,0,0,1.59.75,1.94,1.94,0,0,0,1.59-.75A3,3,0,0,0,34,12.18c0-.17.08-0.42,0.08-0.84V11.17H32.77v0.92a0.55,0.55,0,0,1-.59.5c-0.42,0-.67-0.34-0.59-1V10.33h2.6Zm-2.51-.42c0-.67.17-0.84,0.59-0.84s0.59,0.17.59,0.84V9.08H31.42V8.32Zm-4.11,4.11a0.84,0.84,0,0,1-.67-0.34V7.73a0.84,0.84,0,0,1,.67-0.34c0.34,0,.5.17,0.5,0.92v3.1C27.82,12.18,27.65,12.43,27.32,12.43ZM12,12.76a2,2,0,0,1-1.42.92,0.84,0.84,0,0,1-.84-0.59A3.28,3.28,0,0,1,9.55,12V6.31h1.34v5.87a0.23,0.23,0,0,0,.2.25h0.05a1.1,1.1,0,0,0,.75-0.67V6.31h1.34v7.21H11.9V12.76H12Zm-5.36.92a1.79,1.79,0,0,1-1.51-.75,2.88,2.88,0,0,1-.42-1.68V8.66A3.4,3.4,0,0,1,5.11,6.9a1.68,1.68,0,0,1,1.51-.67,1.73,1.73,0,0,1,1.51.67,2.88,2.88,0,0,1,.42,1.68v2.6a3.08,3.08,0,0,1-.42,1.68A1.87,1.87,0,0,1,6.62,13.68Zm0-6.2c-0.42,0-.67.34-0.59,1.09v2.85c-0.08.75,0.17,1.09,0.59,1.09s0.67-.34.59-1.09V8.57C7.29,7.82,7,7.48,6.62,7.48Zm-3.44,6H1.76V9.58S0.25,4.8,0,3.88H1.51l1,3.77,1-3.77H5L3.18,9.58v3.94Z" transform="translate(0 -1.45)"/><path d="M12,27.76a2,2,0,0,1-1.42.92,0.84,0.84,0,0,1-.84-0.59A3.28,3.28,0,0,1,9.55,27v-5.7h1.34v5.87a0.23,0.23,0,0,0,.2.25h0.05a1.1,1.1,0,0,0,.75-0.67V21.31h1.34v7.21H11.9V27.76H12Zm-5.36.92a1.79,1.79,0,0,1-1.51-.75,2.88,2.88,0,0,1-.42-1.68v-2.6a3.4,3.4,0,0,1,.42-1.76,1.68,1.68,0,0,1,1.51-.67,1.73,1.73,0,0,1,1.51.67,2.88,2.88,0,0,1,.42,1.68v2.6a3.08,3.08,0,0,1-.42,1.68A1.87,1.87,0,0,1,6.62,28.68Zm0-6.2c-0.42,0-.67.34-0.59,1.09v2.85c-0.08.75,0.17,1.09,0.59,1.09s0.67-.34.59-1.09V23.57C7.29,22.82,7,22.48,6.62,22.48Zm-3.44,6H1.76V24.58S0.25,19.8,0,18.88H1.51l1,3.77,1-3.77H5l-1.84,5.7v3.94Z" transform="translate(0 -1.45)"/><path class="cls-2" d="M35.53,28.18a4.25,4.25,0,0,1-.84,2.09,3.46,3.46,0,0,1-2.09.92c-3,.25-7.46.25-7.46,0.25s-5.53-.08-7.21-0.25a3.66,3.66,0,0,1-2.35-.92,4.25,4.25,0,0,1-.84-2.09,26.34,26.34,0,0,1-.25-3.44V23.07a28.09,28.09,0,0,1,.25-3.44,4.25,4.25,0,0,1,.84-2.09,3.46,3.46,0,0,1,2.09-.92c2.93-.17,7.37-0.17,7.37-0.17h0s4.44,0,7.46.25a3.13,3.13,0,0,1,2.09.92,4.25,4.25,0,0,1,.84,2.09,26.34,26.34,0,0,1,.25,3.44v1.59A20.73,20.73,0,0,1,35.53,28.18ZM20.7,19H16.17V20.3h1.51v8.21h1.42V20.3H20.7V19Zm3.52,2.43H22.88v5.45a1.1,1.1,0,0,1-.75.67,0.23,0.23,0,0,1-.25-0.25V21.39H20.53V27a3.28,3.28,0,0,0,.17,1.09,0.91,0.91,0,0,0,.84.59A2,2,0,0,0,23,27.76v0.75H24.3V21.39H24.22Zm4.94,2.09A5,5,0,0,0,29,22.06a1.06,1.06,0,0,0-1-.84,1.63,1.63,0,0,0-1.34.84V19H25.39v9.55h1.26V27.76A2,2,0,0,0,28,28.6a1.06,1.06,0,0,0,1.09-.84,5.47,5.47,0,0,0,.17-1.42V23.49H29.16Zm4.78,0.25a2.88,2.88,0,0,0-.42-1.68,1.89,1.89,0,0,0-3,0,2.88,2.88,0,0,0-.42,1.68v2.51a3.08,3.08,0,0,0,.42,1.68,1.84,1.84,0,0,0,1.59.75,1.94,1.94,0,0,0,1.59-.75A3,3,0,0,0,34,27.18c0-.17.08-0.42,0.08-0.84V26.17H32.77v0.92a0.55,0.55,0,0,1-.59.5c-0.42,0-.67-0.34-0.59-1V25.33h2.6Zm-2.51-.42c0-.67.17-0.84,0.59-0.84s0.59,0.17.59,0.84v0.75H31.42V23.32Zm-4.11,4.11a0.84,0.84,0,0,1-.67-0.34V22.73a0.84,0.84,0,0,1,.67-0.34c0.34,0,.5.17,0.5,0.92v3.1C27.82,27.18,27.65,27.43,27.32,27.43Z" transform="translate(0 -1.45)"/></svg>