<svg xmlns="http://www.w3.org/2000/svg" xmlns:xlink="http://www.w3.org/1999/xlink" version="1.0" x="0px" y="0px" viewBox="0 0 8 30" enable-background="new 0 0 8 30" width="8px" height="30px" xml:space="preserve">
<defs><style>.cls-1{fill:#949494;}.cls-2{fill:#00000;}</style></defs>
<title>facebook</title><path class="cls-1" d="M19.45,15.06V8.12H17.17V5.83h2.28V3.55A3.13,3.13,0,0,1,22.92.08H25.2V2.36H23.71c-1.19,0-2,.4-2,1.19V5.83H25.2L24.11,8.12H21.73v6.94H19.45Z" transform="translate(-17.17 -0.06)"/><path class="cls-2" d="M19.45,30.06V23.12H17.17V20.83h2.28V18.55a3.13,3.13,0,0,1,3.47-3.47H25.2v2.28H23.71c-1.19,0-2,.4-2,1.19v2.28H25.2l-1.09,2.28H21.73v6.94H19.45Z" transform="translate(-17.17 -0.06)"/></svg>